<mxfile host="app.diagrams.net" agent="Mozilla/5.0 (Windows NT 10.0; Win64; x64) AppleWebKit/537.36 (KHTML, like Gecko) Chrome/128.0.0.0 Safari/537.36 OPR/114.0.0.0" version="25.0.3">
  <diagram name="PÃ¡gina-1" id="8a0yF-LQZsyPmbWnhQfs">
    <mxGraphModel dx="1393" dy="763" grid="1" gridSize="10" guides="1" tooltips="1" connect="1" arrows="1" fold="1" page="1" pageScale="1" pageWidth="827" pageHeight="1169" math="0" shadow="0">
      <root>
        <mxCell id="0" />
        <mxCell id="1" parent="0" />
        <mxCell id="hebn08feRRR65ugb6CPv-8" style="edgeStyle=orthogonalEdgeStyle;rounded=0;orthogonalLoop=1;jettySize=auto;html=1;entryX=0.5;entryY=0;entryDx=0;entryDy=0;" edge="1" parent="1" source="hebn08feRRR65ugb6CPv-1" target="hebn08feRRR65ugb6CPv-4">
          <mxGeometry relative="1" as="geometry" />
        </mxCell>
        <mxCell id="hebn08feRRR65ugb6CPv-1" value="INICIO" style="strokeWidth=2;html=1;shape=mxgraph.flowchart.start_1;whiteSpace=wrap;" vertex="1" parent="1">
          <mxGeometry x="364" y="10" width="100" height="60" as="geometry" />
        </mxCell>
        <mxCell id="hebn08feRRR65ugb6CPv-3" value="FIM" style="strokeWidth=2;html=1;shape=mxgraph.flowchart.start_1;whiteSpace=wrap;" vertex="1" parent="1">
          <mxGeometry x="364" y="1080" width="100" height="60" as="geometry" />
        </mxCell>
        <mxCell id="hebn08feRRR65ugb6CPv-9" style="edgeStyle=orthogonalEdgeStyle;rounded=0;orthogonalLoop=1;jettySize=auto;html=1;entryX=0.5;entryY=0;entryDx=0;entryDy=0;" edge="1" parent="1" source="hebn08feRRR65ugb6CPv-4" target="hebn08feRRR65ugb6CPv-5">
          <mxGeometry relative="1" as="geometry" />
        </mxCell>
        <mxCell id="hebn08feRRR65ugb6CPv-4" value="totalAPagar = 0" style="rounded=1;whiteSpace=wrap;html=1;absoluteArcSize=1;arcSize=14;strokeWidth=2;" vertex="1" parent="1">
          <mxGeometry x="359" y="120" width="110" height="50" as="geometry" />
        </mxCell>
        <mxCell id="hebn08feRRR65ugb6CPv-10" style="edgeStyle=orthogonalEdgeStyle;rounded=0;orthogonalLoop=1;jettySize=auto;html=1;entryX=0.5;entryY=0;entryDx=0;entryDy=0;" edge="1" parent="1" source="hebn08feRRR65ugb6CPv-5" target="hebn08feRRR65ugb6CPv-6">
          <mxGeometry relative="1" as="geometry" />
        </mxCell>
        <mxCell id="hebn08feRRR65ugb6CPv-5" value="produtos[50]" style="rounded=1;whiteSpace=wrap;html=1;absoluteArcSize=1;arcSize=14;strokeWidth=2;" vertex="1" parent="1">
          <mxGeometry x="369" y="220" width="90" height="40" as="geometry" />
        </mxCell>
        <mxCell id="hebn08feRRR65ugb6CPv-11" style="edgeStyle=orthogonalEdgeStyle;rounded=0;orthogonalLoop=1;jettySize=auto;html=1;entryX=0.5;entryY=0;entryDx=0;entryDy=0;" edge="1" parent="1" source="hebn08feRRR65ugb6CPv-6" target="hebn08feRRR65ugb6CPv-7">
          <mxGeometry relative="1" as="geometry" />
        </mxCell>
        <mxCell id="hebn08feRRR65ugb6CPv-6" value="referencia = 0" style="rounded=1;whiteSpace=wrap;html=1;absoluteArcSize=1;arcSize=14;strokeWidth=2;" vertex="1" parent="1">
          <mxGeometry x="369" y="300" width="90" height="50" as="geometry" />
        </mxCell>
        <mxCell id="hebn08feRRR65ugb6CPv-7" value="continua = 0" style="rounded=1;whiteSpace=wrap;html=1;absoluteArcSize=1;arcSize=14;strokeWidth=2;" vertex="1" parent="1">
          <mxGeometry x="374" y="390" width="79" height="40" as="geometry" />
        </mxCell>
        <mxCell id="hebn08feRRR65ugb6CPv-17" style="edgeStyle=orthogonalEdgeStyle;rounded=0;orthogonalLoop=1;jettySize=auto;html=1;entryX=0;entryY=0.5;entryDx=0;entryDy=0;" edge="1" parent="1" source="hebn08feRRR65ugb6CPv-13" target="hebn08feRRR65ugb6CPv-16">
          <mxGeometry relative="1" as="geometry" />
        </mxCell>
        <mxCell id="hebn08feRRR65ugb6CPv-45" value="V" style="edgeLabel;html=1;align=center;verticalAlign=middle;resizable=0;points=[];" vertex="1" connectable="0" parent="hebn08feRRR65ugb6CPv-17">
          <mxGeometry x="-0.2245" y="4" relative="1" as="geometry">
            <mxPoint as="offset" />
          </mxGeometry>
        </mxCell>
        <mxCell id="hebn08feRRR65ugb6CPv-57" style="edgeStyle=orthogonalEdgeStyle;rounded=0;orthogonalLoop=1;jettySize=auto;html=1;entryX=0.5;entryY=0;entryDx=0;entryDy=0;" edge="1" parent="1" source="hebn08feRRR65ugb6CPv-13" target="hebn08feRRR65ugb6CPv-56">
          <mxGeometry relative="1" as="geometry" />
        </mxCell>
        <mxCell id="hebn08feRRR65ugb6CPv-13" value="continua != 1" style="strokeWidth=2;html=1;shape=mxgraph.flowchart.decision;whiteSpace=wrap;" vertex="1" parent="1">
          <mxGeometry x="367" y="490" width="94" height="80" as="geometry" />
        </mxCell>
        <mxCell id="hebn08feRRR65ugb6CPv-14" style="edgeStyle=orthogonalEdgeStyle;rounded=0;orthogonalLoop=1;jettySize=auto;html=1;entryX=0.5;entryY=0;entryDx=0;entryDy=0;entryPerimeter=0;" edge="1" parent="1" source="hebn08feRRR65ugb6CPv-7" target="hebn08feRRR65ugb6CPv-13">
          <mxGeometry relative="1" as="geometry" />
        </mxCell>
        <mxCell id="hebn08feRRR65ugb6CPv-16" value="produtos[referencia]" style="html=1;strokeWidth=2;shape=manualInput;whiteSpace=wrap;rounded=1;size=26;arcSize=11;" vertex="1" parent="1">
          <mxGeometry x="510" y="500" width="120" height="60" as="geometry" />
        </mxCell>
        <mxCell id="hebn08feRRR65ugb6CPv-18" value="Incrementa referencia" style="rounded=1;whiteSpace=wrap;html=1;absoluteArcSize=1;arcSize=14;strokeWidth=2;" vertex="1" parent="1">
          <mxGeometry x="525" y="960" width="90" height="60" as="geometry" />
        </mxCell>
        <mxCell id="hebn08feRRR65ugb6CPv-19" value="valor" style="html=1;strokeWidth=2;shape=manualInput;whiteSpace=wrap;rounded=1;size=26;arcSize=11;" vertex="1" parent="1">
          <mxGeometry x="520" y="585" width="100" height="60" as="geometry" />
        </mxCell>
        <mxCell id="hebn08feRRR65ugb6CPv-20" style="edgeStyle=orthogonalEdgeStyle;rounded=0;orthogonalLoop=1;jettySize=auto;html=1;entryX=0.5;entryY=0.183;entryDx=0;entryDy=0;entryPerimeter=0;" edge="1" parent="1" source="hebn08feRRR65ugb6CPv-16" target="hebn08feRRR65ugb6CPv-19">
          <mxGeometry relative="1" as="geometry" />
        </mxCell>
        <mxCell id="hebn08feRRR65ugb6CPv-31" style="edgeStyle=orthogonalEdgeStyle;rounded=0;orthogonalLoop=1;jettySize=auto;html=1;entryX=0;entryY=0.5;entryDx=0;entryDy=0;" edge="1" parent="1" source="hebn08feRRR65ugb6CPv-22" target="hebn08feRRR65ugb6CPv-24">
          <mxGeometry relative="1" as="geometry" />
        </mxCell>
        <mxCell id="hebn08feRRR65ugb6CPv-33" value="SIM" style="edgeLabel;html=1;align=center;verticalAlign=middle;resizable=0;points=[];" vertex="1" connectable="0" parent="hebn08feRRR65ugb6CPv-31">
          <mxGeometry x="-0.2" y="2" relative="1" as="geometry">
            <mxPoint as="offset" />
          </mxGeometry>
        </mxCell>
        <mxCell id="hebn08feRRR65ugb6CPv-22" value="valor &amp;gt; 0" style="strokeWidth=2;html=1;shape=mxgraph.flowchart.decision;whiteSpace=wrap;" vertex="1" parent="1">
          <mxGeometry x="530" y="690" width="80" height="70" as="geometry" />
        </mxCell>
        <mxCell id="hebn08feRRR65ugb6CPv-23" style="edgeStyle=orthogonalEdgeStyle;rounded=0;orthogonalLoop=1;jettySize=auto;html=1;entryX=0.5;entryY=0;entryDx=0;entryDy=0;entryPerimeter=0;" edge="1" parent="1" source="hebn08feRRR65ugb6CPv-19" target="hebn08feRRR65ugb6CPv-22">
          <mxGeometry relative="1" as="geometry" />
        </mxCell>
        <mxCell id="hebn08feRRR65ugb6CPv-24" value="totalAPagar += valor" style="rounded=1;whiteSpace=wrap;html=1;absoluteArcSize=1;arcSize=14;strokeWidth=2;" vertex="1" parent="1">
          <mxGeometry x="700" y="705" width="120" height="40" as="geometry" />
        </mxCell>
        <mxCell id="hebn08feRRR65ugb6CPv-26" value="" style="strokeWidth=2;html=1;shape=mxgraph.flowchart.start_2;whiteSpace=wrap;" vertex="1" parent="1">
          <mxGeometry x="550" y="800" width="40" height="40" as="geometry" />
        </mxCell>
        <mxCell id="hebn08feRRR65ugb6CPv-28" style="edgeStyle=orthogonalEdgeStyle;rounded=0;orthogonalLoop=1;jettySize=auto;html=1;entryX=0;entryY=0.5;entryDx=0;entryDy=0;entryPerimeter=0;" edge="1" parent="1" source="hebn08feRRR65ugb6CPv-22" target="hebn08feRRR65ugb6CPv-26">
          <mxGeometry relative="1" as="geometry">
            <Array as="points">
              <mxPoint x="490" y="725" />
              <mxPoint x="490" y="820" />
            </Array>
          </mxGeometry>
        </mxCell>
        <mxCell id="hebn08feRRR65ugb6CPv-29" value="NAO" style="edgeLabel;html=1;align=center;verticalAlign=middle;resizable=0;points=[];" vertex="1" connectable="0" parent="hebn08feRRR65ugb6CPv-28">
          <mxGeometry x="-0.7846" y="1" relative="1" as="geometry">
            <mxPoint as="offset" />
          </mxGeometry>
        </mxCell>
        <mxCell id="hebn08feRRR65ugb6CPv-32" style="edgeStyle=orthogonalEdgeStyle;rounded=0;orthogonalLoop=1;jettySize=auto;html=1;entryX=1;entryY=0.5;entryDx=0;entryDy=0;entryPerimeter=0;" edge="1" parent="1" source="hebn08feRRR65ugb6CPv-24" target="hebn08feRRR65ugb6CPv-26">
          <mxGeometry relative="1" as="geometry">
            <Array as="points">
              <mxPoint x="760" y="820" />
            </Array>
          </mxGeometry>
        </mxCell>
        <mxCell id="hebn08feRRR65ugb6CPv-36" style="edgeStyle=orthogonalEdgeStyle;rounded=0;orthogonalLoop=1;jettySize=auto;html=1;entryX=0.5;entryY=0;entryDx=0;entryDy=0;" edge="1" parent="1" source="hebn08feRRR65ugb6CPv-34" target="hebn08feRRR65ugb6CPv-18">
          <mxGeometry relative="1" as="geometry" />
        </mxCell>
        <mxCell id="hebn08feRRR65ugb6CPv-34" value="continua" style="html=1;strokeWidth=2;shape=manualInput;whiteSpace=wrap;rounded=1;size=26;arcSize=11;" vertex="1" parent="1">
          <mxGeometry x="520" y="860" width="100" height="60" as="geometry" />
        </mxCell>
        <mxCell id="hebn08feRRR65ugb6CPv-37" style="edgeStyle=orthogonalEdgeStyle;rounded=0;orthogonalLoop=1;jettySize=auto;html=1;entryX=0.5;entryY=0.233;entryDx=0;entryDy=0;entryPerimeter=0;" edge="1" parent="1" source="hebn08feRRR65ugb6CPv-26" target="hebn08feRRR65ugb6CPv-34">
          <mxGeometry relative="1" as="geometry" />
        </mxCell>
        <mxCell id="hebn08feRRR65ugb6CPv-38" style="edgeStyle=orthogonalEdgeStyle;rounded=0;orthogonalLoop=1;jettySize=auto;html=1;entryX=0.5;entryY=1;entryDx=0;entryDy=0;entryPerimeter=0;" edge="1" parent="1" source="hebn08feRRR65ugb6CPv-18" target="hebn08feRRR65ugb6CPv-13">
          <mxGeometry relative="1" as="geometry" />
        </mxCell>
        <mxCell id="hebn08feRRR65ugb6CPv-58" style="edgeStyle=orthogonalEdgeStyle;rounded=0;orthogonalLoop=1;jettySize=auto;html=1;entryX=0.5;entryY=1;entryDx=0;entryDy=0;" edge="1" parent="1" source="hebn08feRRR65ugb6CPv-42" target="hebn08feRRR65ugb6CPv-56">
          <mxGeometry relative="1" as="geometry">
            <Array as="points">
              <mxPoint x="320" y="790" />
              <mxPoint x="145" y="790" />
            </Array>
          </mxGeometry>
        </mxCell>
        <mxCell id="hebn08feRRR65ugb6CPv-42" value="produtos[x]" style="strokeWidth=2;html=1;shape=mxgraph.flowchart.display;whiteSpace=wrap;" vertex="1" parent="1">
          <mxGeometry x="250" y="640" width="140" height="80" as="geometry" />
        </mxCell>
        <mxCell id="hebn08feRRR65ugb6CPv-51" value="totalAPagar" style="strokeWidth=2;html=1;shape=mxgraph.flowchart.display;whiteSpace=wrap;" vertex="1" parent="1">
          <mxGeometry x="50" y="940" width="100" height="60" as="geometry" />
        </mxCell>
        <mxCell id="hebn08feRRR65ugb6CPv-54" style="edgeStyle=orthogonalEdgeStyle;rounded=0;orthogonalLoop=1;jettySize=auto;html=1;entryX=0;entryY=0.5;entryDx=0;entryDy=0;entryPerimeter=0;" edge="1" parent="1" source="hebn08feRRR65ugb6CPv-51" target="hebn08feRRR65ugb6CPv-3">
          <mxGeometry relative="1" as="geometry" />
        </mxCell>
        <mxCell id="hebn08feRRR65ugb6CPv-56" value="x = 0, &amp;lt; referencia, ++" style="rounded=1;whiteSpace=wrap;html=1;absoluteArcSize=1;arcSize=14;strokeWidth=2;" vertex="1" parent="1">
          <mxGeometry x="80" y="650" width="130" height="60" as="geometry" />
        </mxCell>
        <mxCell id="hebn08feRRR65ugb6CPv-59" style="edgeStyle=orthogonalEdgeStyle;rounded=0;orthogonalLoop=1;jettySize=auto;html=1;entryX=0;entryY=0.5;entryDx=0;entryDy=0;entryPerimeter=0;" edge="1" parent="1" source="hebn08feRRR65ugb6CPv-56" target="hebn08feRRR65ugb6CPv-42">
          <mxGeometry relative="1" as="geometry" />
        </mxCell>
        <mxCell id="hebn08feRRR65ugb6CPv-60" value="V" style="edgeLabel;html=1;align=center;verticalAlign=middle;resizable=0;points=[];" vertex="1" connectable="0" parent="hebn08feRRR65ugb6CPv-59">
          <mxGeometry x="0.1" y="1" relative="1" as="geometry">
            <mxPoint as="offset" />
          </mxGeometry>
        </mxCell>
        <mxCell id="hebn08feRRR65ugb6CPv-62" style="edgeStyle=orthogonalEdgeStyle;rounded=0;orthogonalLoop=1;jettySize=auto;html=1;entryX=0.57;entryY=0.033;entryDx=0;entryDy=0;entryPerimeter=0;" edge="1" parent="1" source="hebn08feRRR65ugb6CPv-56" target="hebn08feRRR65ugb6CPv-51">
          <mxGeometry relative="1" as="geometry">
            <Array as="points">
              <mxPoint x="30" y="680" />
              <mxPoint x="30" y="825" />
              <mxPoint x="107" y="825" />
            </Array>
          </mxGeometry>
        </mxCell>
        <mxCell id="hebn08feRRR65ugb6CPv-63" value="F" style="edgeLabel;html=1;align=center;verticalAlign=middle;resizable=0;points=[];" vertex="1" connectable="0" parent="hebn08feRRR65ugb6CPv-62">
          <mxGeometry x="-0.5835" relative="1" as="geometry">
            <mxPoint as="offset" />
          </mxGeometry>
        </mxCell>
      </root>
    </mxGraphModel>
  </diagram>
</mxfile>
